<svg width="1464" height="187" viewBox="0 0 1464 187" fill="none" xmlns="http://www.w3.org/2000/svg">
<path d="M81.0967 6.31506H113.03L133.145 65.4039L153.261 6.31506H185.445L155.021 87.5308L177.65 144.608L228.19 5.81217H265.906L193.24 184.336H164.073L133.145 109.406L102.218 184.336H73.0505L0.886719 5.81217H38.1001L88.8914 144.608L111.018 87.5308L81.0967 6.31506ZM333.364 186.85C322.803 186.85 313.248 185.09 304.699 181.57C296.15 177.882 288.858 172.937 282.824 166.735C276.789 160.533 272.096 153.325 268.743 145.111C265.558 136.897 263.966 128.264 263.966 119.212C263.966 109.825 265.558 101.025 268.743 92.8111C271.928 84.4297 276.538 77.1379 282.572 70.9356C288.607 64.5658 295.899 59.5369 304.448 55.8491C313.164 52.1613 322.887 50.3174 333.615 50.3174C344.343 50.3174 353.898 52.1613 362.279 55.8491C370.828 59.5369 378.036 64.482 383.903 70.6842C389.938 76.8864 394.464 84.0944 397.481 92.3082C400.666 100.522 402.259 109.071 402.259 117.955C402.259 120.134 402.175 122.23 402.007 124.241C402.007 126.253 401.84 127.929 401.504 129.27H299.67C300.173 134.467 301.431 139.076 303.442 143.099C305.454 147.123 308.052 150.559 311.237 153.409C314.422 156.258 318.026 158.437 322.049 159.946C326.072 161.455 330.263 162.209 334.621 162.209C341.326 162.209 347.612 160.617 353.479 157.432C359.514 154.079 363.62 149.721 365.8 144.357L394.715 152.403C389.854 162.46 382.06 170.758 371.331 177.296C360.771 183.665 348.115 186.85 333.364 186.85ZM367.56 107.395C366.722 97.5047 363.034 89.6261 356.496 83.7592C350.126 77.7246 342.332 74.7073 333.112 74.7073C328.586 74.7073 324.312 75.5454 320.289 77.2217C316.433 78.7303 312.997 80.9095 309.98 83.7592C306.962 86.6088 304.448 90.0452 302.436 94.0683C300.592 98.0914 299.503 102.533 299.168 107.395H367.56ZM505.258 186.85C495.2 186.85 486.232 184.587 478.353 180.061C470.475 175.535 464.273 169.333 459.747 161.455V184.336H430.328V0.783339H464.021V75.713C468.715 67.6669 474.833 61.4647 482.376 57.1063C490.087 52.5804 499.055 50.3174 509.281 50.3174C517.83 50.3174 525.624 52.1613 532.665 55.8491C539.705 59.5369 545.74 64.482 550.769 70.6842C555.965 76.8864 559.904 84.1782 562.586 92.5596C565.436 100.941 566.861 109.741 566.861 118.961C566.861 128.516 565.268 137.4 562.083 145.614C559.066 153.828 554.792 161.036 549.26 167.238C543.728 173.272 537.191 178.05 529.647 181.57C522.104 185.09 513.974 186.85 505.258 186.85ZM495.954 158.186C501.318 158.186 506.263 157.18 510.789 155.169C515.315 152.99 519.171 150.14 522.356 146.62C525.541 143.099 527.971 138.993 529.647 134.299C531.491 129.605 532.413 124.577 532.413 119.212C532.413 113.848 531.575 108.736 529.899 103.875C528.223 99.0133 525.792 94.7388 522.607 91.051C519.59 87.3632 515.986 84.4297 511.795 82.2505C507.604 80.0714 502.995 78.9818 497.966 78.9818C490.423 78.9818 483.634 81.4962 477.599 86.525C471.732 91.3862 467.206 97.4208 464.021 104.629V136.059C465.194 139.412 466.871 142.429 469.05 145.111C471.397 147.793 473.995 150.14 476.845 152.151C479.694 153.995 482.795 155.504 486.148 156.677C489.501 157.683 492.769 158.186 495.954 158.186Z" fill="#2196F3"/>
<path d="M774.809 52.5804C773.636 51.407 771.457 49.8145 768.272 47.803C765.254 45.7914 761.483 43.8637 756.957 42.0198C752.599 40.0083 747.821 38.332 742.625 36.991C737.428 35.6499 732.148 34.9794 726.784 34.9794C717.229 34.9794 710.105 36.7395 705.411 40.2597C700.718 43.7799 698.371 48.7249 698.371 55.0948C698.371 58.7826 699.209 61.8837 700.885 64.3981C702.729 66.7449 705.327 68.8403 708.68 70.6842C712.033 72.5281 716.223 74.2044 721.252 75.713C726.449 77.2217 732.399 78.8141 739.104 80.4904C747.821 82.8372 755.7 85.3516 762.74 88.0337C769.948 90.7157 775.983 94.0683 780.844 98.0914C785.873 102.114 789.728 106.976 792.41 112.675C795.092 118.207 796.433 125.079 796.433 133.293C796.433 142.848 794.589 151.062 790.902 157.935C787.381 164.64 782.52 170.088 776.318 174.278C770.283 178.469 763.243 181.57 755.197 183.582C747.318 185.426 739.021 186.347 730.304 186.347C716.894 186.347 703.651 184.336 690.576 180.313C677.501 176.29 665.767 170.59 655.374 163.215L670.712 133.293C672.221 134.802 674.903 136.813 678.758 139.328C682.781 141.675 687.475 144.105 692.839 146.62C698.203 148.966 704.154 150.978 710.692 152.654C717.229 154.331 723.934 155.169 730.807 155.169C749.916 155.169 759.471 149.05 759.471 136.813C759.471 132.958 758.382 129.689 756.203 127.007C754.023 124.325 750.922 121.978 746.899 119.967C742.876 117.955 738.015 116.111 732.316 114.435C726.616 112.759 720.246 110.915 713.206 108.903C704.657 106.557 697.197 104.042 690.828 101.36C684.625 98.5104 679.429 95.2417 675.238 91.5539C671.048 87.6984 667.863 83.3401 665.683 78.4789C663.672 73.45 662.666 67.4993 662.666 60.6265C662.666 51.5746 664.342 43.5285 667.695 36.4881C671.048 29.4477 675.657 23.5807 681.524 18.8871C687.559 14.1936 694.515 10.6734 702.394 8.32659C710.272 5.81217 718.738 4.55496 727.79 4.55496C740.362 4.55496 751.928 6.5665 762.489 10.5896C773.049 14.445 782.269 19.0548 790.147 24.4189L774.809 52.5804ZM904.408 177.547C899.882 179.559 894.35 181.57 887.813 183.582C881.275 185.593 874.403 186.599 867.195 186.599C862.501 186.599 858.059 186.012 853.868 184.839C849.845 183.665 846.241 181.822 843.056 179.307C840.039 176.625 837.608 173.272 835.764 169.249C833.92 165.059 832.998 160.03 832.998 154.163V78.4789H815.649V52.5804H832.998V9.83525H866.692V52.5804H894.35V78.4789H866.692V142.848C866.692 147.542 867.865 150.894 870.212 152.906C872.726 154.75 875.744 155.672 879.264 155.672C882.784 155.672 886.22 155.085 889.573 153.911C892.925 152.738 895.607 151.732 897.619 150.894L904.408 177.547ZM969.73 186.85C956.152 186.85 945.843 182.492 938.802 173.775C931.762 165.059 928.242 152.151 928.242 135.053V52.5804H961.935V127.762C961.935 148.044 969.227 158.186 983.81 158.186C990.348 158.186 996.634 156.258 1002.67 152.403C1008.87 148.38 1013.9 142.345 1017.76 134.299V52.5804H1051.45V145.614C1051.45 149.134 1052.04 151.648 1053.21 153.157C1054.55 154.666 1056.64 155.504 1059.49 155.672V184.336C1056.14 185.006 1053.29 185.426 1050.95 185.593C1048.77 185.761 1046.75 185.845 1044.91 185.845C1038.88 185.845 1033.93 184.504 1030.08 181.822C1026.39 178.972 1024.21 175.116 1023.54 170.255L1022.78 159.695C1016.92 168.747 1009.37 175.535 1000.15 180.061C990.935 184.587 980.793 186.85 969.73 186.85ZM1147.04 186.85C1137.99 186.85 1129.6 185.09 1121.89 181.57C1114.18 178.05 1107.56 173.189 1102.03 166.986C1096.5 160.784 1092.14 153.576 1088.95 145.362C1085.94 136.981 1084.43 128.013 1084.43 118.458C1084.43 108.903 1085.85 100.019 1088.7 91.8053C1091.72 83.5915 1095.83 76.3835 1101.02 70.1813C1106.22 63.9791 1112.42 59.1179 1119.63 55.5977C1126.84 52.0775 1134.72 50.3174 1143.27 50.3174C1152.99 50.3174 1161.71 52.6642 1169.42 57.3578C1177.29 62.0514 1183.41 68.1698 1187.77 75.713V0.783339H1221.46V145.614C1221.46 149.134 1222.05 151.648 1223.22 153.157C1224.4 154.666 1226.41 155.504 1229.26 155.672V184.336C1223.39 185.509 1218.61 186.096 1214.93 186.096C1208.89 186.096 1203.95 184.587 1200.09 181.57C1196.24 178.553 1194.06 174.614 1193.55 169.752L1192.8 161.455C1187.94 169.836 1181.32 176.206 1172.94 180.564C1164.72 184.755 1156.09 186.85 1147.04 186.85ZM1155.84 158.186C1159.02 158.186 1162.29 157.683 1165.64 156.677C1169 155.504 1172.1 153.911 1174.95 151.9C1177.8 149.888 1180.31 147.542 1182.49 144.86C1184.84 142.178 1186.6 139.244 1187.77 136.059V104.629C1186.43 100.941 1184.5 97.5885 1181.99 94.5712C1179.64 91.3862 1176.88 88.7042 1173.69 86.525C1170.67 84.1782 1167.4 82.3343 1163.88 80.9933C1160.53 79.6523 1157.18 78.9818 1153.83 78.9818C1148.8 78.9818 1144.1 80.0714 1139.75 82.2505C1135.56 84.4297 1131.95 87.447 1128.93 91.3024C1125.92 94.9902 1123.57 99.2648 1121.89 104.126C1120.22 108.987 1119.38 114.016 1119.38 119.212C1119.38 124.744 1120.3 129.857 1122.14 134.55C1123.99 139.244 1126.5 143.351 1129.69 146.871C1132.87 150.391 1136.64 153.157 1141 155.169C1145.53 157.18 1150.47 158.186 1155.84 158.186ZM1262.08 184.336V52.5804H1295.77V184.336H1262.08ZM1262.08 34.2251V0.783339H1295.77V34.2251H1262.08ZM1394.56 186.85C1383.83 186.85 1374.19 185.006 1365.64 181.319C1357.1 177.631 1349.8 172.686 1343.77 166.484C1337.9 160.114 1333.38 152.822 1330.19 144.608C1327.01 136.394 1325.41 127.762 1325.41 118.71C1325.41 109.49 1327.01 100.773 1330.19 92.5596C1333.38 84.3459 1337.9 77.1379 1343.77 70.9356C1349.8 64.5658 1357.1 59.5369 1365.64 55.8491C1374.19 52.1613 1383.83 50.3174 1394.56 50.3174C1405.29 50.3174 1414.84 52.1613 1423.22 55.8491C1431.77 59.5369 1438.98 64.5658 1444.85 70.9356C1450.88 77.1379 1455.49 84.3459 1458.68 92.5596C1461.86 100.773 1463.46 109.49 1463.46 118.71C1463.46 127.762 1461.86 136.394 1458.68 144.608C1455.49 152.822 1450.97 160.114 1445.1 166.484C1439.23 172.686 1432.03 177.631 1423.48 181.319C1414.93 185.006 1405.29 186.85 1394.56 186.85ZM1360.11 118.71C1360.11 124.577 1360.95 129.941 1362.63 134.802C1364.47 139.495 1366.9 143.602 1369.92 147.123C1373.1 150.643 1376.79 153.409 1380.98 155.42C1385.17 157.264 1389.7 158.186 1394.56 158.186C1399.42 158.186 1403.95 157.264 1408.14 155.42C1412.33 153.409 1415.93 150.643 1418.95 147.123C1422.14 143.602 1424.57 139.412 1426.24 134.55C1428.09 129.689 1429.01 124.325 1429.01 118.458C1429.01 112.759 1428.09 107.479 1426.24 102.617C1424.57 97.7561 1422.14 93.5654 1418.95 90.0452C1415.93 86.525 1412.33 83.843 1408.14 81.9991C1403.95 79.9875 1399.42 78.9818 1394.56 78.9818C1389.7 78.9818 1385.17 79.9875 1380.98 81.9991C1376.79 84.0106 1373.1 86.7765 1369.92 90.2967C1366.9 93.8168 1364.47 98.0075 1362.63 102.869C1360.95 107.73 1360.11 113.01 1360.11 118.71Z" fill="black"/>
</svg>
